<svg width="343" height="48" viewBox="0 0 343 48" fill="none" xmlns="http://www.w3.org/2000/svg">
<rect width="343" height="48" rx="8" fill="#F7F7F7"/>
<rect x="90.5" y="15" width="18" height="18" rx="9" fill="#161616"/>
<path fill-rule="evenodd" clip-rule="evenodd" d="M103 20.5C103 22.433 101.433 24 99.5 24C97.567 24 96 22.433 96 20.5C96 18.567 97.567 17 99.5 17C101.433 17 103 18.567 103 20.5ZM99.5 33C101.751 33 103.829 32.2561 105.5 31.0007C105.5 28.2393 102.261 26 99.5 26C96.7386 26 93.5 28.2386 93.5 31C95.1713 32.2554 97.2488 33 99.5 33Z" fill="#F7F7F7"/>
<path d="M124.065 29.128C123.073 29.128 122.166 28.9253 121.345 28.52C120.534 28.104 119.868 27.4533 119.345 26.568C118.822 25.6827 118.561 24.6267 118.561 23.4C118.561 21.5867 119.094 20.1787 120.161 19.176C121.228 18.1733 122.529 17.672 124.065 17.672C125.356 17.672 126.438 18.0027 127.313 18.664C128.188 19.3147 128.726 20.2 128.929 21.32L127.073 21.72C126.913 20.9733 126.566 20.3867 126.033 19.96C125.5 19.5227 124.844 19.304 124.065 19.304C123.009 19.304 122.145 19.6667 121.473 20.392C120.801 21.1067 120.465 22.1093 120.465 23.4C120.465 24.6907 120.796 25.6933 121.457 26.408C122.129 27.1227 122.998 27.48 124.065 27.48C124.844 27.48 125.489 27.2827 126.001 26.888C126.513 26.4933 126.86 25.9387 127.041 25.224L128.913 25.624C128.636 26.712 128.07 27.5707 127.217 28.2C126.364 28.8187 125.313 29.128 124.065 29.128ZM134.268 29.128C133.052 29.128 132.054 28.7387 131.276 27.96C130.497 27.1707 130.108 26.1733 130.108 24.968C130.108 23.7627 130.497 22.7707 131.276 21.992C132.054 21.2027 133.052 20.808 134.268 20.808C135.473 20.808 136.465 21.2027 137.244 21.992C138.033 22.7707 138.428 23.7627 138.428 24.968C138.428 26.1733 138.033 27.1707 137.244 27.96C136.465 28.7387 135.473 29.128 134.268 29.128ZM132.524 26.872C132.972 27.3627 133.553 27.608 134.268 27.608C134.982 27.608 135.558 27.3627 135.996 26.872C136.444 26.3813 136.668 25.7467 136.668 24.968C136.668 24.1893 136.444 23.5547 135.996 23.064C135.558 22.5733 134.982 22.328 134.268 22.328C133.553 22.328 132.972 22.5733 132.524 23.064C132.086 23.5547 131.868 24.1893 131.868 24.968C131.868 25.7467 132.086 26.3813 132.524 26.872ZM140.04 29V20.936H141.784V22.28C142.402 21.2987 143.288 20.808 144.44 20.808C145.304 20.808 146.002 21.0747 146.536 21.608C147.08 22.1307 147.352 22.824 147.352 23.688V29H145.608V24.088C145.608 23.576 145.458 23.1653 145.16 22.856C144.861 22.536 144.461 22.376 143.96 22.376C143.277 22.376 142.744 22.648 142.36 23.192C141.976 23.736 141.784 24.4933 141.784 25.464V29H140.04ZM153.694 28.936C153.31 29.064 152.883 29.128 152.414 29.128C151.614 29.128 150.968 28.904 150.478 28.456C149.998 28.008 149.758 27.3413 149.758 26.456V22.424H148.35V20.936H149.758V18.536H151.502V20.936H153.582V22.424H151.502V26.36C151.502 26.7547 151.598 27.0587 151.79 27.272C151.992 27.4747 152.264 27.576 152.606 27.576C152.99 27.576 153.315 27.512 153.582 27.384L153.694 28.936ZM156.029 19.592C155.709 19.592 155.442 19.4853 155.229 19.272C155.015 19.048 154.909 18.7813 154.909 18.472C154.909 18.152 155.015 17.8853 155.229 17.672C155.442 17.448 155.709 17.336 156.029 17.336C156.359 17.336 156.631 17.448 156.845 17.672C157.069 17.8853 157.181 18.152 157.181 18.472C157.181 18.7813 157.069 19.048 156.845 19.272C156.631 19.4853 156.359 19.592 156.029 19.592ZM155.165 29V20.936H156.909V29H155.165ZM158.977 29V20.936H160.721V22.28C161.34 21.2987 162.225 20.808 163.377 20.808C164.241 20.808 164.94 21.0747 165.473 21.608C166.017 22.1307 166.289 22.824 166.289 23.688V29H164.545V24.088C164.545 23.576 164.396 23.1653 164.097 22.856C163.798 22.536 163.398 22.376 162.897 22.376C162.214 22.376 161.681 22.648 161.297 23.192C160.913 23.736 160.721 24.4933 160.721 25.464V29H158.977ZM175.57 20.936V29H173.826V27.656C173.549 28.104 173.181 28.4613 172.722 28.728C172.264 28.9947 171.752 29.128 171.186 29.128C170.312 29.128 169.602 28.8667 169.058 28.344C168.525 27.8107 168.258 27.112 168.258 26.248V20.936H170.002V25.848C170.002 26.36 170.152 26.776 170.45 27.096C170.749 27.4053 171.154 27.56 171.666 27.56C172.338 27.56 172.866 27.288 173.25 26.744C173.634 26.2 173.826 25.4427 173.826 24.472V20.936H175.57ZM185.105 24.664C185.105 24.952 185.095 25.192 185.073 25.384H178.913C178.988 26.0773 179.233 26.6267 179.649 27.032C180.076 27.4373 180.609 27.64 181.249 27.64C181.783 27.64 182.225 27.5227 182.577 27.288C182.929 27.0427 183.159 26.7013 183.265 26.264L184.913 26.68C184.7 27.4587 184.268 28.0613 183.617 28.488C182.967 28.9147 182.167 29.128 181.217 29.128C179.991 29.128 179.015 28.7227 178.289 27.912C177.564 27.0907 177.201 26.1093 177.201 24.968C177.201 23.816 177.548 22.8347 178.241 22.024C178.945 21.2133 179.911 20.808 181.137 20.808C182.375 20.808 183.345 21.1867 184.049 21.944C184.753 22.7013 185.105 23.608 185.105 24.664ZM178.993 24.056H183.249C183.196 23.4907 182.983 23.0373 182.609 22.696C182.247 22.3547 181.756 22.184 181.137 22.184C180.583 22.184 180.119 22.3493 179.745 22.68C179.372 23 179.121 23.4587 178.993 24.056ZM193.643 20.808C194.688 20.808 195.526 21.0907 196.155 21.656C196.784 22.2107 197.099 22.984 197.099 23.976V29H195.387V27.768C195.152 28.1733 194.806 28.504 194.347 28.76C193.888 29.0053 193.392 29.128 192.859 29.128C192.059 29.128 191.408 28.904 190.907 28.456C190.406 28.008 190.155 27.4373 190.155 26.744C190.155 25.208 191.392 24.312 193.867 24.056L195.387 23.896V23.784C195.387 23.2933 195.227 22.904 194.907 22.616C194.598 22.328 194.176 22.184 193.643 22.184C193.152 22.184 192.747 22.3227 192.427 22.6C192.107 22.8667 191.92 23.24 191.867 23.72L190.299 23.432C190.427 22.6427 190.8 22.008 191.419 21.528C192.038 21.048 192.779 20.808 193.643 20.808ZM193.211 27.784C193.883 27.784 194.411 27.576 194.795 27.16C195.179 26.744 195.376 26.2 195.387 25.528V25.192L193.851 25.368C192.528 25.5173 191.867 25.96 191.867 26.696C191.867 27.016 191.99 27.2773 192.235 27.48C192.48 27.6827 192.806 27.784 193.211 27.784ZM201.933 29.128C201.026 29.128 200.274 28.8987 199.677 28.44C199.09 27.9707 198.69 27.4107 198.477 26.76L199.917 26.152C200.248 27.208 200.92 27.736 201.933 27.736C202.338 27.736 202.669 27.6347 202.925 27.432C203.192 27.2293 203.325 26.9787 203.325 26.68C203.325 26.36 203.17 26.1093 202.861 25.928C202.552 25.7467 202.173 25.608 201.725 25.512C201.288 25.4053 200.85 25.2827 200.413 25.144C199.976 24.9947 199.602 24.744 199.293 24.392C198.984 24.04 198.829 23.5813 198.829 23.016C198.829 22.376 199.085 21.848 199.597 21.432C200.12 21.016 200.813 20.808 201.677 20.808C202.434 20.808 203.106 20.9947 203.693 21.368C204.28 21.7307 204.658 22.2053 204.829 22.792L203.389 23.4C203.293 23.016 203.08 22.712 202.749 22.488C202.429 22.264 202.077 22.152 201.693 22.152C201.309 22.152 201.005 22.2267 200.781 22.376C200.557 22.5147 200.445 22.7173 200.445 22.984C200.445 23.2613 200.6 23.48 200.909 23.64C201.218 23.7893 201.592 23.912 202.029 24.008C202.477 24.104 202.925 24.2267 203.373 24.376C203.821 24.5253 204.2 24.792 204.509 25.176C204.818 25.56 204.973 26.056 204.973 26.664C204.973 27.368 204.69 27.9547 204.125 28.424C203.56 28.8933 202.829 29.128 201.933 29.128ZM215.407 29.128C214.437 29.128 213.546 28.9253 212.735 28.52C211.935 28.104 211.274 27.4533 210.751 26.568C210.229 25.6827 209.967 24.6267 209.967 23.4C209.967 21.5867 210.506 20.1787 211.583 19.176C212.661 18.1733 213.967 17.672 215.503 17.672C216.805 17.672 217.898 17.9973 218.783 18.648C219.669 19.2987 220.218 20.1893 220.431 21.32L218.575 21.704C218.426 20.968 218.074 20.3867 217.519 19.96C216.975 19.5227 216.298 19.304 215.487 19.304C214.41 19.304 213.535 19.6667 212.863 20.392C212.202 21.1173 211.871 22.12 211.871 23.4C211.871 24.68 212.202 25.6827 212.863 26.408C213.525 27.1227 214.394 27.48 215.471 27.48C216.389 27.48 217.13 27.224 217.695 26.712C218.271 26.1893 218.586 25.5013 218.639 24.648H215.055V23.096H220.383V29H218.687V27.496C218.431 27.9867 218.005 28.3813 217.407 28.68C216.81 28.9787 216.143 29.128 215.407 29.128ZM229.664 20.936V29H227.92V27.656C227.643 28.104 227.275 28.4613 226.816 28.728C226.357 28.9947 225.845 29.128 225.28 29.128C224.405 29.128 223.696 28.8667 223.152 28.344C222.619 27.8107 222.352 27.112 222.352 26.248V20.936H224.096V25.848C224.096 26.36 224.245 26.776 224.544 27.096C224.843 27.4053 225.248 27.56 225.76 27.56C226.432 27.56 226.96 27.288 227.344 26.744C227.728 26.2 227.92 25.4427 227.92 24.472V20.936H229.664ZM239.199 24.664C239.199 24.952 239.188 25.192 239.167 25.384H233.007C233.082 26.0773 233.327 26.6267 233.743 27.032C234.17 27.4373 234.703 27.64 235.343 27.64C235.876 27.64 236.319 27.5227 236.671 27.288C237.023 27.0427 237.252 26.7013 237.359 26.264L239.007 26.68C238.794 27.4587 238.362 28.0613 237.711 28.488C237.06 28.9147 236.26 29.128 235.311 29.128C234.084 29.128 233.108 28.7227 232.383 27.912C231.658 27.0907 231.295 26.1093 231.295 24.968C231.295 23.816 231.642 22.8347 232.335 22.024C233.039 21.2133 234.004 20.808 235.231 20.808C236.468 20.808 237.439 21.1867 238.143 21.944C238.847 22.7013 239.199 23.608 239.199 24.664ZM233.087 24.056H237.343C237.29 23.4907 237.076 23.0373 236.703 22.696C236.34 22.3547 235.85 22.184 235.231 22.184C234.676 22.184 234.212 22.3493 233.839 22.68C233.466 23 233.215 23.4587 233.087 24.056ZM243.527 29.128C242.62 29.128 241.868 28.8987 241.271 28.44C240.684 27.9707 240.284 27.4107 240.071 26.76L241.511 26.152C241.841 27.208 242.513 27.736 243.527 27.736C243.932 27.736 244.263 27.6347 244.519 27.432C244.785 27.2293 244.919 26.9787 244.919 26.68C244.919 26.36 244.764 26.1093 244.455 25.928C244.145 25.7467 243.767 25.608 243.319 25.512C242.881 25.4053 242.444 25.2827 242.007 25.144C241.569 24.9947 241.196 24.744 240.887 24.392C240.577 24.04 240.423 23.5813 240.423 23.016C240.423 22.376 240.679 21.848 241.191 21.432C241.713 21.016 242.407 20.808 243.271 20.808C244.028 20.808 244.7 20.9947 245.287 21.368C245.873 21.7307 246.252 22.2053 246.423 22.792L244.983 23.4C244.887 23.016 244.673 22.712 244.343 22.488C244.023 22.264 243.671 22.152 243.287 22.152C242.903 22.152 242.599 22.2267 242.375 22.376C242.151 22.5147 242.039 22.7173 242.039 22.984C242.039 23.2613 242.193 23.48 242.503 23.64C242.812 23.7893 243.185 23.912 243.623 24.008C244.071 24.104 244.519 24.2267 244.967 24.376C245.415 24.5253 245.793 24.792 246.103 25.176C246.412 25.56 246.567 26.056 246.567 26.664C246.567 27.368 246.284 27.9547 245.719 28.424C245.153 28.8933 244.423 29.128 243.527 29.128ZM252.6 28.936C252.216 29.064 251.789 29.128 251.32 29.128C250.52 29.128 249.875 28.904 249.384 28.456C248.904 28.008 248.664 27.3413 248.664 26.456V22.424H247.256V20.936H248.664V18.536H250.408V20.936H252.488V22.424H250.408V26.36C250.408 26.7547 250.504 27.0587 250.696 27.272C250.899 27.4747 251.171 27.576 251.512 27.576C251.896 27.576 252.221 27.512 252.488 27.384L252.6 28.936Z" fill="#222222"/>
</svg>
