<svg width="343" height="48" viewBox="0 0 343 48" fill="none" xmlns="http://www.w3.org/2000/svg">
<rect width="343" height="48" rx="8" fill="#161616"/>
<path fill-rule="evenodd" clip-rule="evenodd" d="M95.912 14C96.0986 15.2148 95.5827 16.4049 94.902 17.2469C94.1738 18.15 92.9187 18.8485 91.7026 18.8121C91.4806 17.649 92.049 16.4507 92.7406 15.6452C93.4993 14.7562 94.7996 14.0741 95.912 14ZM99.5651 31.0987C100.192 30.1779 100.426 29.7134 100.913 28.6739C97.3732 27.3838 96.806 22.5612 100.309 20.7102C99.2406 19.426 97.7391 18.6816 96.3218 18.6816C95.3005 18.6816 94.6008 18.937 93.9646 19.1692C93.4345 19.3627 92.9486 19.5401 92.3576 19.5401C91.7189 19.5401 91.1533 19.3457 90.561 19.1423C89.9103 18.9186 89.2274 18.684 88.3799 18.684C86.7894 18.684 85.0963 19.6154 84.023 21.2076C82.5141 23.4502 82.7715 27.6661 85.2183 31.2575C86.0929 32.5428 87.2614 33.9869 88.7898 33.9998C89.4239 34.0059 89.8459 33.8245 90.3026 33.6282C90.8253 33.4035 91.3934 33.1593 92.3771 33.1543C93.3665 33.1486 93.9257 33.3958 94.4414 33.6238C94.8864 33.8205 95.299 34.0029 95.9278 33.9963C97.4574 33.9846 98.6905 32.3841 99.5651 31.0987Z" fill="white"/>
<path d="M116.401 29.128C115.409 29.128 114.502 28.9253 113.681 28.52C112.87 28.104 112.204 27.4533 111.681 26.568C111.158 25.6827 110.897 24.6267 110.897 23.4C110.897 21.5867 111.43 20.1787 112.497 19.176C113.564 18.1733 114.865 17.672 116.401 17.672C117.692 17.672 118.774 18.0027 119.649 18.664C120.524 19.3147 121.062 20.2 121.265 21.32L119.409 21.72C119.249 20.9733 118.902 20.3867 118.369 19.96C117.836 19.5227 117.18 19.304 116.401 19.304C115.345 19.304 114.481 19.6667 113.809 20.392C113.137 21.1067 112.801 22.1093 112.801 23.4C112.801 24.6907 113.132 25.6933 113.793 26.408C114.465 27.1227 115.334 27.48 116.401 27.48C117.18 27.48 117.825 27.2827 118.337 26.888C118.849 26.4933 119.196 25.9387 119.377 25.224L121.249 25.624C120.972 26.712 120.406 27.5707 119.553 28.2C118.7 28.8187 117.649 29.128 116.401 29.128ZM126.604 29.128C125.388 29.128 124.39 28.7387 123.612 27.96C122.833 27.1707 122.444 26.1733 122.444 24.968C122.444 23.7627 122.833 22.7707 123.612 21.992C124.39 21.2027 125.388 20.808 126.604 20.808C127.809 20.808 128.801 21.2027 129.58 21.992C130.369 22.7707 130.764 23.7627 130.764 24.968C130.764 26.1733 130.369 27.1707 129.58 27.96C128.801 28.7387 127.809 29.128 126.604 29.128ZM124.86 26.872C125.308 27.3627 125.889 27.608 126.604 27.608C127.318 27.608 127.894 27.3627 128.332 26.872C128.78 26.3813 129.004 25.7467 129.004 24.968C129.004 24.1893 128.78 23.5547 128.332 23.064C127.894 22.5733 127.318 22.328 126.604 22.328C125.889 22.328 125.308 22.5733 124.86 23.064C124.422 23.5547 124.204 24.1893 124.204 24.968C124.204 25.7467 124.422 26.3813 124.86 26.872ZM132.376 29V20.936H134.12V22.28C134.738 21.2987 135.624 20.808 136.776 20.808C137.64 20.808 138.338 21.0747 138.872 21.608C139.416 22.1307 139.688 22.824 139.688 23.688V29H137.944V24.088C137.944 23.576 137.794 23.1653 137.496 22.856C137.197 22.536 136.797 22.376 136.296 22.376C135.613 22.376 135.08 22.648 134.696 23.192C134.312 23.736 134.12 24.4933 134.12 25.464V29H132.376ZM146.03 28.936C145.646 29.064 145.219 29.128 144.75 29.128C143.95 29.128 143.304 28.904 142.814 28.456C142.334 28.008 142.094 27.3413 142.094 26.456V22.424H140.686V20.936H142.094V18.536H143.838V20.936H145.918V22.424H143.838V26.36C143.838 26.7547 143.934 27.0587 144.126 27.272C144.328 27.4747 144.6 27.576 144.942 27.576C145.326 27.576 145.651 27.512 145.918 27.384L146.03 28.936ZM148.365 19.592C148.045 19.592 147.778 19.4853 147.565 19.272C147.351 19.048 147.245 18.7813 147.245 18.472C147.245 18.152 147.351 17.8853 147.565 17.672C147.778 17.448 148.045 17.336 148.365 17.336C148.695 17.336 148.967 17.448 149.181 17.672C149.405 17.8853 149.517 18.152 149.517 18.472C149.517 18.7813 149.405 19.048 149.181 19.272C148.967 19.4853 148.695 19.592 148.365 19.592ZM147.501 29V20.936H149.245V29H147.501ZM151.313 29V20.936H153.057V22.28C153.676 21.2987 154.561 20.808 155.713 20.808C156.577 20.808 157.276 21.0747 157.809 21.608C158.353 22.1307 158.625 22.824 158.625 23.688V29H156.881V24.088C156.881 23.576 156.732 23.1653 156.433 22.856C156.134 22.536 155.734 22.376 155.233 22.376C154.55 22.376 154.017 22.648 153.633 23.192C153.249 23.736 153.057 24.4933 153.057 25.464V29H151.313ZM167.906 20.936V29H166.162V27.656C165.885 28.104 165.517 28.4613 165.058 28.728C164.6 28.9947 164.088 29.128 163.522 29.128C162.648 29.128 161.938 28.8667 161.394 28.344C160.861 27.8107 160.594 27.112 160.594 26.248V20.936H162.338V25.848C162.338 26.36 162.488 26.776 162.786 27.096C163.085 27.4053 163.49 27.56 164.002 27.56C164.674 27.56 165.202 27.288 165.586 26.744C165.97 26.2 166.162 25.4427 166.162 24.472V20.936H167.906ZM177.441 24.664C177.441 24.952 177.431 25.192 177.409 25.384H171.249C171.324 26.0773 171.569 26.6267 171.985 27.032C172.412 27.4373 172.945 27.64 173.585 27.64C174.119 27.64 174.561 27.5227 174.913 27.288C175.265 27.0427 175.495 26.7013 175.601 26.264L177.249 26.68C177.036 27.4587 176.604 28.0613 175.953 28.488C175.303 28.9147 174.503 29.128 173.553 29.128C172.327 29.128 171.351 28.7227 170.625 27.912C169.9 27.0907 169.537 26.1093 169.537 24.968C169.537 23.816 169.884 22.8347 170.577 22.024C171.281 21.2133 172.247 20.808 173.473 20.808C174.711 20.808 175.681 21.1867 176.385 21.944C177.089 22.7013 177.441 23.608 177.441 24.664ZM171.329 24.056H175.585C175.532 23.4907 175.319 23.0373 174.945 22.696C174.583 22.3547 174.092 22.184 173.473 22.184C172.919 22.184 172.455 22.3493 172.081 22.68C171.708 23 171.457 23.4587 171.329 24.056ZM184.763 29L182.267 20.936H184.043L185.563 26.568L187.307 20.936H188.923L190.651 26.568L192.171 20.936H193.947L191.467 29H189.851L188.107 23.384L186.363 29H184.763ZM196.224 19.592C195.904 19.592 195.637 19.4853 195.424 19.272C195.211 19.048 195.104 18.7813 195.104 18.472C195.104 18.152 195.211 17.8853 195.424 17.672C195.637 17.448 195.904 17.336 196.224 17.336C196.555 17.336 196.827 17.448 197.04 17.672C197.264 17.8853 197.376 18.152 197.376 18.472C197.376 18.7813 197.264 19.048 197.04 19.272C196.827 19.4853 196.555 19.592 196.224 19.592ZM195.36 29V20.936H197.104V29H195.36ZM203.748 28.936C203.364 29.064 202.938 29.128 202.468 29.128C201.668 29.128 201.023 28.904 200.532 28.456C200.052 28.008 199.812 27.3413 199.812 26.456V22.424H198.404V20.936H199.812V18.536H201.556V20.936H203.636V22.424H201.556V26.36C201.556 26.7547 201.652 27.0587 201.844 27.272C202.047 27.4747 202.319 27.576 202.66 27.576C203.044 27.576 203.37 27.512 203.636 27.384L203.748 28.936ZM205.501 29V17.672H207.245V22.328C207.81 21.3147 208.69 20.808 209.885 20.808C210.802 20.808 211.533 21.0747 212.077 21.608C212.631 22.1307 212.909 22.8293 212.909 23.704V29H211.165V24.104C211.165 23.5707 211.005 23.1493 210.685 22.84C210.375 22.5307 209.949 22.376 209.405 22.376C208.733 22.376 208.205 22.6533 207.821 23.208C207.437 23.7627 207.245 24.5307 207.245 25.512V29H205.501ZM226.429 29L225.437 26.36H220.829L219.837 29H217.901L222.253 17.8H223.997L228.365 29H226.429ZM221.437 24.744H224.829L223.133 20.264L221.437 24.744ZM229.516 31.912V20.936H231.26V21.96C231.495 21.6187 231.836 21.3413 232.284 21.128C232.732 20.9147 233.228 20.808 233.772 20.808C234.946 20.808 235.868 21.192 236.54 21.96C237.223 22.728 237.564 23.7307 237.564 24.968C237.564 26.2053 237.212 27.208 236.508 27.976C235.815 28.744 234.871 29.128 233.676 29.128C233.186 29.128 232.722 29.032 232.284 28.84C231.847 28.648 231.506 28.392 231.26 28.072V31.912H229.516ZM231.788 26.888C232.215 27.368 232.78 27.608 233.484 27.608C234.188 27.608 234.754 27.368 235.18 26.888C235.607 26.3973 235.82 25.7573 235.82 24.968C235.82 24.168 235.607 23.528 235.18 23.048C234.754 22.568 234.188 22.328 233.484 22.328C232.78 22.328 232.215 22.568 231.788 23.048C231.362 23.528 231.148 24.168 231.148 24.968C231.148 25.7573 231.362 26.3973 231.788 26.888ZM239.172 31.912V20.936H240.916V21.96C241.151 21.6187 241.492 21.3413 241.94 21.128C242.388 20.9147 242.884 20.808 243.428 20.808C244.602 20.808 245.524 21.192 246.196 21.96C246.879 22.728 247.22 23.7307 247.22 24.968C247.22 26.2053 246.868 27.208 246.164 27.976C245.471 28.744 244.527 29.128 243.332 29.128C242.842 29.128 242.378 29.032 241.94 28.84C241.503 28.648 241.162 28.392 240.916 28.072V31.912H239.172ZM241.444 26.888C241.871 27.368 242.436 27.608 243.14 27.608C243.844 27.608 244.41 27.368 244.836 26.888C245.263 26.3973 245.476 25.7573 245.476 24.968C245.476 24.168 245.263 23.528 244.836 23.048C244.41 22.568 243.844 22.328 243.14 22.328C242.436 22.328 241.871 22.568 241.444 23.048C241.018 23.528 240.804 24.168 240.804 24.968C240.804 25.7573 241.018 26.3973 241.444 26.888ZM248.829 29V17.672H250.573V29H248.829ZM260.113 24.664C260.113 24.952 260.103 25.192 260.081 25.384H253.921C253.996 26.0773 254.241 26.6267 254.657 27.032C255.084 27.4373 255.617 27.64 256.257 27.64C256.791 27.64 257.233 27.5227 257.585 27.288C257.937 27.0427 258.167 26.7013 258.273 26.264L259.921 26.68C259.708 27.4587 259.276 28.0613 258.625 28.488C257.975 28.9147 257.175 29.128 256.225 29.128C254.999 29.128 254.023 28.7227 253.297 27.912C252.572 27.0907 252.209 26.1093 252.209 24.968C252.209 23.816 252.556 22.8347 253.249 22.024C253.953 21.2133 254.919 20.808 256.145 20.808C257.383 20.808 258.353 21.1867 259.057 21.944C259.761 22.7013 260.113 23.608 260.113 24.664ZM254.001 24.056H258.257C258.204 23.4907 257.991 23.0373 257.617 22.696C257.255 22.3547 256.764 22.184 256.145 22.184C255.591 22.184 255.127 22.3493 254.753 22.68C254.38 23 254.129 23.4587 254.001 24.056Z" fill="white"/>
</svg>
