<svg width="343" height="48" viewBox="0 0 343 48" fill="none" xmlns="http://www.w3.org/2000/svg">
<rect width="343" height="48" rx="8" fill="#F7F7F7"/>
<path fill-rule="evenodd" clip-rule="evenodd" d="M87.0002 17.8667C88.878 17.8667 90.1447 18.6778 90.8669 19.3556L93.6891 16.6C91.9558 14.9889 89.7002 14 87.0002 14C83.0891 14 79.7113 16.2444 78.0669 19.5111L81.3002 22.0222C82.1113 19.6111 84.3558 17.8667 87.0002 17.8667Z" fill="#EA4335"/>
<path fill-rule="evenodd" clip-rule="evenodd" d="M96.6 24.2222C96.6 23.4 96.5333 22.8 96.3889 22.1777H87V25.8888H92.5111C92.4 26.8111 91.8 28.2 90.4667 29.1333L93.6222 31.5777C95.5111 29.8333 96.6 27.2666 96.6 24.2222Z" fill="#4285F4"/>
<path fill-rule="evenodd" clip-rule="evenodd" d="M81.3111 25.9779C81.1 25.3557 80.9778 24.689 80.9778 24.0001C80.9778 23.3112 81.1 22.6446 81.3 22.0223L78.0667 19.5112C77.3889 20.8668 77 22.389 77 24.0001C77 25.6112 77.3889 27.1335 78.0667 28.489L81.3111 25.9779Z" fill="#FBBC05"/>
<path fill-rule="evenodd" clip-rule="evenodd" d="M86.9999 33.9998C89.6999 33.9998 91.9665 33.1109 93.6221 31.5775L90.4665 29.1331C89.6221 29.722 88.4887 30.1331 86.9999 30.1331C84.3554 30.1331 82.111 28.3887 81.311 25.9775L78.0776 28.4887C79.7221 31.7553 83.0887 33.9998 86.9999 33.9998Z" fill="#34A853"/>
<path d="M111.182 29.128C110.19 29.128 109.284 28.9253 108.462 28.52C107.652 28.104 106.985 27.4533 106.462 26.568C105.94 25.6827 105.678 24.6267 105.678 23.4C105.678 21.5867 106.212 20.1787 107.278 19.176C108.345 18.1733 109.646 17.672 111.182 17.672C112.473 17.672 113.556 18.0027 114.43 18.664C115.305 19.3147 115.844 20.2 116.046 21.32L114.19 21.72C114.03 20.9733 113.684 20.3867 113.15 19.96C112.617 19.5227 111.961 19.304 111.182 19.304C110.126 19.304 109.262 19.6667 108.59 20.392C107.918 21.1067 107.582 22.1093 107.582 23.4C107.582 24.6907 107.913 25.6933 108.574 26.408C109.246 27.1227 110.116 27.48 111.182 27.48C111.961 27.48 112.606 27.2827 113.118 26.888C113.63 26.4933 113.977 25.9387 114.158 25.224L116.03 25.624C115.753 26.712 115.188 27.5707 114.334 28.2C113.481 28.8187 112.43 29.128 111.182 29.128ZM121.385 29.128C120.169 29.128 119.171 28.7387 118.393 27.96C117.614 27.1707 117.225 26.1733 117.225 24.968C117.225 23.7627 117.614 22.7707 118.393 21.992C119.171 21.2027 120.169 20.808 121.385 20.808C122.59 20.808 123.582 21.2027 124.361 21.992C125.15 22.7707 125.545 23.7627 125.545 24.968C125.545 26.1733 125.15 27.1707 124.361 27.96C123.582 28.7387 122.59 29.128 121.385 29.128ZM119.641 26.872C120.089 27.3627 120.67 27.608 121.385 27.608C122.099 27.608 122.675 27.3627 123.113 26.872C123.561 26.3813 123.785 25.7467 123.785 24.968C123.785 24.1893 123.561 23.5547 123.113 23.064C122.675 22.5733 122.099 22.328 121.385 22.328C120.67 22.328 120.089 22.5733 119.641 23.064C119.203 23.5547 118.985 24.1893 118.985 24.968C118.985 25.7467 119.203 26.3813 119.641 26.872ZM127.157 29V20.936H128.901V22.28C129.519 21.2987 130.405 20.808 131.557 20.808C132.421 20.808 133.119 21.0747 133.653 21.608C134.197 22.1307 134.469 22.824 134.469 23.688V29H132.725V24.088C132.725 23.576 132.575 23.1653 132.277 22.856C131.978 22.536 131.578 22.376 131.077 22.376C130.394 22.376 129.861 22.648 129.477 23.192C129.093 23.736 128.901 24.4933 128.901 25.464V29H127.157ZM140.811 28.936C140.427 29.064 140 29.128 139.531 29.128C138.731 29.128 138.086 28.904 137.595 28.456C137.115 28.008 136.875 27.3413 136.875 26.456V22.424H135.467V20.936H136.875V18.536H138.619V20.936H140.699V22.424H138.619V26.36C138.619 26.7547 138.715 27.0587 138.907 27.272C139.11 27.4747 139.382 27.576 139.723 27.576C140.107 27.576 140.432 27.512 140.699 27.384L140.811 28.936ZM143.146 19.592C142.826 19.592 142.559 19.4853 142.346 19.272C142.132 19.048 142.026 18.7813 142.026 18.472C142.026 18.152 142.132 17.8853 142.346 17.672C142.559 17.448 142.826 17.336 143.146 17.336C143.476 17.336 143.748 17.448 143.962 17.672C144.186 17.8853 144.298 18.152 144.298 18.472C144.298 18.7813 144.186 19.048 143.962 19.272C143.748 19.4853 143.476 19.592 143.146 19.592ZM142.282 29V20.936H144.026V29H142.282ZM146.094 29V20.936H147.838V22.28C148.457 21.2987 149.342 20.808 150.494 20.808C151.358 20.808 152.057 21.0747 152.59 21.608C153.134 22.1307 153.406 22.824 153.406 23.688V29H151.662V24.088C151.662 23.576 151.513 23.1653 151.214 22.856C150.916 22.536 150.516 22.376 150.014 22.376C149.332 22.376 148.798 22.648 148.414 23.192C148.03 23.736 147.838 24.4933 147.838 25.464V29H146.094ZM162.688 20.936V29H160.944V27.656C160.666 28.104 160.298 28.4613 159.84 28.728C159.381 28.9947 158.869 29.128 158.304 29.128C157.429 29.128 156.72 28.8667 156.176 28.344C155.642 27.8107 155.376 27.112 155.376 26.248V20.936H157.12V25.848C157.12 26.36 157.269 26.776 157.568 27.096C157.866 27.4053 158.272 27.56 158.784 27.56C159.456 27.56 159.984 27.288 160.368 26.744C160.752 26.2 160.944 25.4427 160.944 24.472V20.936H162.688ZM172.223 24.664C172.223 24.952 172.212 25.192 172.191 25.384H166.031C166.105 26.0773 166.351 26.6267 166.767 27.032C167.193 27.4373 167.727 27.64 168.367 27.64C168.9 27.64 169.343 27.5227 169.695 27.288C170.047 27.0427 170.276 26.7013 170.383 26.264L172.031 26.68C171.817 27.4587 171.385 28.0613 170.735 28.488C170.084 28.9147 169.284 29.128 168.335 29.128C167.108 29.128 166.132 28.7227 165.407 27.912C164.681 27.0907 164.319 26.1093 164.319 24.968C164.319 23.816 164.665 22.8347 165.359 22.024C166.063 21.2133 167.028 20.808 168.255 20.808C169.492 20.808 170.463 21.1867 171.167 21.944C171.871 22.7013 172.223 23.608 172.223 24.664ZM166.111 24.056H170.367C170.313 23.4907 170.1 23.0373 169.727 22.696C169.364 22.3547 168.873 22.184 168.255 22.184C167.7 22.184 167.236 22.3493 166.863 22.68C166.489 23 166.239 23.4587 166.111 24.056ZM179.544 29L177.048 20.936H178.824L180.344 26.568L182.088 20.936H183.704L185.432 26.568L186.952 20.936H188.728L186.248 29H184.632L182.888 23.384L181.144 29H179.544ZM191.005 19.592C190.685 19.592 190.419 19.4853 190.205 19.272C189.992 19.048 189.885 18.7813 189.885 18.472C189.885 18.152 189.992 17.8853 190.205 17.672C190.419 17.448 190.685 17.336 191.005 17.336C191.336 17.336 191.608 17.448 191.821 17.672C192.045 17.8853 192.157 18.152 192.157 18.472C192.157 18.7813 192.045 19.048 191.821 19.272C191.608 19.4853 191.336 19.592 191.005 19.592ZM190.141 29V20.936H191.885V29H190.141ZM198.53 28.936C198.146 29.064 197.719 29.128 197.25 29.128C196.45 29.128 195.804 28.904 195.314 28.456C194.834 28.008 194.594 27.3413 194.594 26.456V22.424H193.186V20.936H194.594V18.536H196.338V20.936H198.418V22.424H196.338V26.36C196.338 26.7547 196.434 27.0587 196.626 27.272C196.828 27.4747 197.1 27.576 197.442 27.576C197.826 27.576 198.151 27.512 198.418 27.384L198.53 28.936ZM200.282 29V17.672H202.026V22.328C202.591 21.3147 203.471 20.808 204.666 20.808C205.583 20.808 206.314 21.0747 206.858 21.608C207.412 22.1307 207.69 22.8293 207.69 23.704V29H205.946V24.104C205.946 23.5707 205.786 23.1493 205.466 22.84C205.156 22.5307 204.73 22.376 204.186 22.376C203.514 22.376 202.986 22.6533 202.602 23.208C202.218 23.7627 202.026 24.5307 202.026 25.512V29H200.282ZM218.603 29.128C217.632 29.128 216.741 28.9253 215.931 28.52C215.131 28.104 214.469 27.4533 213.947 26.568C213.424 25.6827 213.163 24.6267 213.163 23.4C213.163 21.5867 213.701 20.1787 214.779 19.176C215.856 18.1733 217.163 17.672 218.699 17.672C220 17.672 221.093 17.9973 221.979 18.648C222.864 19.2987 223.413 20.1893 223.627 21.32L221.771 21.704C221.621 20.968 221.269 20.3867 220.715 19.96C220.171 19.5227 219.493 19.304 218.683 19.304C217.605 19.304 216.731 19.6667 216.059 20.392C215.397 21.1173 215.067 22.12 215.067 23.4C215.067 24.68 215.397 25.6827 216.059 26.408C216.72 27.1227 217.589 27.48 218.667 27.48C219.584 27.48 220.325 27.224 220.891 26.712C221.467 26.1893 221.781 25.5013 221.835 24.648H218.251V23.096H223.579V29H221.883V27.496C221.627 27.9867 221.2 28.3813 220.603 28.68C220.005 28.9787 219.339 29.128 218.603 29.128ZM229.275 29.128C228.059 29.128 227.062 28.7387 226.283 27.96C225.505 27.1707 225.115 26.1733 225.115 24.968C225.115 23.7627 225.505 22.7707 226.283 21.992C227.062 21.2027 228.059 20.808 229.275 20.808C230.481 20.808 231.473 21.2027 232.251 21.992C233.041 22.7707 233.435 23.7627 233.435 24.968C233.435 26.1733 233.041 27.1707 232.251 27.96C231.473 28.7387 230.481 29.128 229.275 29.128ZM227.531 26.872C227.979 27.3627 228.561 27.608 229.275 27.608C229.99 27.608 230.566 27.3627 231.003 26.872C231.451 26.3813 231.675 25.7467 231.675 24.968C231.675 24.1893 231.451 23.5547 231.003 23.064C230.566 22.5733 229.99 22.328 229.275 22.328C228.561 22.328 227.979 22.5733 227.531 23.064C227.094 23.5547 226.875 24.1893 226.875 24.968C226.875 25.7467 227.094 26.3813 227.531 26.872ZM238.775 29.128C237.559 29.128 236.562 28.7387 235.783 27.96C235.005 27.1707 234.615 26.1733 234.615 24.968C234.615 23.7627 235.005 22.7707 235.783 21.992C236.562 21.2027 237.559 20.808 238.775 20.808C239.981 20.808 240.973 21.2027 241.751 21.992C242.541 22.7707 242.935 23.7627 242.935 24.968C242.935 26.1733 242.541 27.1707 241.751 27.96C240.973 28.7387 239.981 29.128 238.775 29.128ZM237.031 26.872C237.479 27.3627 238.061 27.608 238.775 27.608C239.49 27.608 240.066 27.3627 240.503 26.872C240.951 26.3813 241.175 25.7467 241.175 24.968C241.175 24.1893 240.951 23.5547 240.503 23.064C240.066 22.5733 239.49 22.328 238.775 22.328C238.061 22.328 237.479 22.5733 237.031 23.064C236.594 23.5547 236.375 24.1893 236.375 24.968C236.375 25.7467 236.594 26.3813 237.031 26.872ZM250.275 20.936H252.003V28.552C252.003 29.5867 251.641 30.424 250.915 31.064C250.201 31.7147 249.262 32.04 248.099 32.04C247.15 32.04 246.339 31.8107 245.667 31.352C244.995 30.8933 244.595 30.296 244.467 29.56L246.099 29.288C246.142 29.6827 246.35 30.0027 246.723 30.248C247.107 30.4933 247.566 30.616 248.099 30.616C248.75 30.616 249.278 30.44 249.683 30.088C250.089 29.736 250.291 29.2827 250.291 28.728V27.752C250.089 28.0613 249.769 28.312 249.331 28.504C248.894 28.6853 248.414 28.776 247.891 28.776C246.718 28.776 245.795 28.4133 245.123 27.688C244.451 26.952 244.115 25.9867 244.115 24.792C244.115 23.5973 244.446 22.6373 245.107 21.912C245.779 21.176 246.697 20.808 247.859 20.808C248.361 20.808 248.83 20.904 249.267 21.096C249.705 21.288 250.041 21.544 250.275 21.864V20.936ZM246.483 26.584C246.899 27.032 247.449 27.256 248.131 27.256C248.814 27.256 249.358 27.032 249.763 26.584C250.179 26.136 250.387 25.5387 250.387 24.792C250.387 24.0453 250.179 23.448 249.763 23C249.358 22.552 248.814 22.328 248.131 22.328C247.449 22.328 246.899 22.552 246.483 23C246.067 23.448 245.859 24.0453 245.859 24.792C245.859 25.5387 246.067 26.136 246.483 26.584ZM254.047 29V17.672H255.791V29H254.047ZM265.332 24.664C265.332 24.952 265.321 25.192 265.3 25.384H259.14C259.215 26.0773 259.46 26.6267 259.876 27.032C260.303 27.4373 260.836 27.64 261.476 27.64C262.009 27.64 262.452 27.5227 262.804 27.288C263.156 27.0427 263.385 26.7013 263.492 26.264L265.14 26.68C264.927 27.4587 264.495 28.0613 263.844 28.488C263.193 28.9147 262.393 29.128 261.444 29.128C260.217 29.128 259.241 28.7227 258.516 27.912C257.791 27.0907 257.428 26.1093 257.428 24.968C257.428 23.816 257.775 22.8347 258.468 22.024C259.172 21.2133 260.137 20.808 261.364 20.808C262.601 20.808 263.572 21.1867 264.276 21.944C264.98 22.7013 265.332 23.608 265.332 24.664ZM259.22 24.056H263.476C263.423 23.4907 263.209 23.0373 262.836 22.696C262.473 22.3547 261.983 22.184 261.364 22.184C260.809 22.184 260.345 22.3493 259.972 22.68C259.599 23 259.348 23.4587 259.22 24.056Z" fill="#222222"/>
</svg>
